<mxfile host="app.diagrams.net" agent="Mozilla/5.0 (Windows NT 10.0; Win64; x64) AppleWebKit/537.36 (KHTML, like Gecko) Chrome/140.0.0.0 Safari/537.36" version="28.2.3">
  <diagram name="Conceptual Model (Original)" id="SswfyS4V0T0tMm6j7hZ1">
    <mxGraphModel dx="1442" dy="962" grid="0" gridSize="10" guides="1" tooltips="1" connect="1" arrows="1" fold="1" page="0" pageScale="1" pageWidth="827" pageHeight="1169" math="0" shadow="0">
      <root>
        <mxCell id="sfA238IPMwlKO-HkluRP-0" />
        <mxCell id="sfA238IPMwlKO-HkluRP-1" parent="sfA238IPMwlKO-HkluRP-0" />
        <mxCell id="sfA238IPMwlKO-HkluRP-2" value="" style="group" parent="sfA238IPMwlKO-HkluRP-1" connectable="0" vertex="1">
          <mxGeometry x="332" y="490" width="293" height="237" as="geometry" />
        </mxCell>
        <mxCell id="sfA238IPMwlKO-HkluRP-3" value="" style="rounded=0;whiteSpace=wrap;html=1;fillColor=#fff2cc;strokeColor=#d6b656;" parent="sfA238IPMwlKO-HkluRP-2" vertex="1">
          <mxGeometry y="34" width="293" height="203" as="geometry" />
        </mxCell>
        <mxCell id="sfA238IPMwlKO-HkluRP-4" value="Product Catalog" style="text;html=1;align=center;verticalAlign=middle;resizable=0;points=[];autosize=1;strokeColor=none;fillColor=none;fontSize=16;fontFamily=Times New Roman;fontStyle=1" parent="sfA238IPMwlKO-HkluRP-2" vertex="1">
          <mxGeometry x="89.5" width="122" height="31" as="geometry" />
        </mxCell>
        <mxCell id="sfA238IPMwlKO-HkluRP-5" style="edgeStyle=orthogonalEdgeStyle;rounded=0;orthogonalLoop=1;jettySize=auto;html=1;exitX=0.75;exitY=1;exitDx=0;exitDy=0;entryX=0.75;entryY=0;entryDx=0;entryDy=0;" parent="sfA238IPMwlKO-HkluRP-2" source="sfA238IPMwlKO-HkluRP-8" target="sfA238IPMwlKO-HkluRP-9" edge="1">
          <mxGeometry relative="1" as="geometry">
            <Array as="points">
              <mxPoint x="122" y="112" />
              <mxPoint x="251" y="112" />
            </Array>
          </mxGeometry>
        </mxCell>
        <mxCell id="sfA238IPMwlKO-HkluRP-6" value="1...*" style="edgeLabel;html=1;align=center;verticalAlign=middle;resizable=0;points=[];" parent="sfA238IPMwlKO-HkluRP-5" connectable="0" vertex="1">
          <mxGeometry x="-0.6322" y="1" relative="1" as="geometry">
            <mxPoint as="offset" />
          </mxGeometry>
        </mxCell>
        <mxCell id="sfA238IPMwlKO-HkluRP-7" value="0...*" style="edgeLabel;html=1;align=center;verticalAlign=middle;resizable=0;points=[];" parent="sfA238IPMwlKO-HkluRP-5" connectable="0" vertex="1">
          <mxGeometry x="0.5517" y="2" relative="1" as="geometry">
            <mxPoint as="offset" />
          </mxGeometry>
        </mxCell>
        <mxCell id="sfA238IPMwlKO-HkluRP-8" value="&lt;p style=&quot;margin:0px;margin-top:4px;text-align:center;&quot;&gt;&lt;b&gt;Rating&lt;/b&gt;&lt;/p&gt;&lt;hr size=&quot;1&quot; style=&quot;border-style:solid;&quot;&gt;&lt;div style=&quot;height:2px;&quot;&gt;&lt;/div&gt;" style="verticalAlign=top;align=left;overflow=fill;html=1;whiteSpace=wrap;fillColor=#ffff88;strokeColor=#36393d;" parent="sfA238IPMwlKO-HkluRP-2" vertex="1">
          <mxGeometry x="17" y="57" width="140" height="40" as="geometry" />
        </mxCell>
        <mxCell id="sfA238IPMwlKO-HkluRP-9" value="&lt;p style=&quot;margin:0px;margin-top:4px;text-align:center;&quot;&gt;&lt;b&gt;Product&lt;/b&gt;&lt;/p&gt;&lt;hr size=&quot;1&quot; style=&quot;border-style:solid;&quot;&gt;&lt;div style=&quot;height:2px;&quot;&gt;&lt;/div&gt;" style="verticalAlign=top;align=left;overflow=fill;html=1;whiteSpace=wrap;fillColor=#ffff88;strokeColor=#36393d;" parent="sfA238IPMwlKO-HkluRP-2" vertex="1">
          <mxGeometry x="146" y="132" width="140" height="40" as="geometry" />
        </mxCell>
        <mxCell id="sfA238IPMwlKO-HkluRP-10" style="edgeStyle=orthogonalEdgeStyle;rounded=0;orthogonalLoop=1;jettySize=auto;html=1;exitX=0.5;exitY=0;exitDx=0;exitDy=0;entryX=0.5;entryY=1;entryDx=0;entryDy=0;" parent="sfA238IPMwlKO-HkluRP-2" source="sfA238IPMwlKO-HkluRP-12" target="sfA238IPMwlKO-HkluRP-8" edge="1">
          <mxGeometry relative="1" as="geometry">
            <Array as="points">
              <mxPoint x="87" y="131" />
              <mxPoint x="87" y="131" />
            </Array>
          </mxGeometry>
        </mxCell>
        <mxCell id="sfA238IPMwlKO-HkluRP-11" value="rate" style="edgeLabel;html=1;align=center;verticalAlign=middle;resizable=0;points=[];" parent="sfA238IPMwlKO-HkluRP-10" connectable="0" vertex="1">
          <mxGeometry x="0.2095" relative="1" as="geometry">
            <mxPoint x="1" as="offset" />
          </mxGeometry>
        </mxCell>
        <mxCell id="sfA238IPMwlKO-HkluRP-12" value="&lt;p style=&quot;margin:0px;margin-top:4px;text-align:center;&quot;&gt;&lt;b&gt;Buyer&lt;/b&gt;&lt;/p&gt;&lt;hr size=&quot;1&quot; style=&quot;border-style:solid;&quot;&gt;&lt;div style=&quot;height:2px;&quot;&gt;&lt;/div&gt;" style="verticalAlign=top;align=left;overflow=fill;html=1;whiteSpace=wrap;fillColor=#ffff88;strokeColor=#36393d;" parent="sfA238IPMwlKO-HkluRP-2" vertex="1">
          <mxGeometry x="17" y="181" width="140" height="40" as="geometry" />
        </mxCell>
        <mxCell id="sfA238IPMwlKO-HkluRP-13" value="" style="group" parent="sfA238IPMwlKO-HkluRP-1" connectable="0" vertex="1">
          <mxGeometry x="-162" y="556" width="376" height="263" as="geometry" />
        </mxCell>
        <mxCell id="sfA238IPMwlKO-HkluRP-14" value="" style="rounded=0;whiteSpace=wrap;html=1;fillColor=#f5f5f5;strokeColor=#666666;fontColor=#333333;" parent="sfA238IPMwlKO-HkluRP-13" vertex="1">
          <mxGeometry x="-15.67" y="27" width="391.67" height="236" as="geometry" />
        </mxCell>
        <mxCell id="sfA238IPMwlKO-HkluRP-15" value="Payment Process&lt;span style=&quot;color: rgba(0, 0, 0, 0); font-family: monospace; font-size: 0px; font-weight: 400; text-align: start;&quot;&gt;%3CmxGraphModel%3E%3Croot%3E%3CmxCell%20id%3D%220%22%2F%3E%3CmxCell%20id%3D%221%22%20parent%3D%220%22%2F%3E%3CmxCell%20id%3D%222%22%20value%3D%22Product%20Catalog%22%20style%3D%22text%3Bhtml%3D1%3Balign%3Dcenter%3BverticalAlign%3Dmiddle%3Bresizable%3D0%3Bpoints%3D%5B%5D%3Bautosize%3D1%3BstrokeColor%3Dnone%3BfillColor%3Dnone%3BfontSize%3D16%3BfontFamily%3DTimes%20New%20Roman%3BfontStyle%3D1%22%20vertex%3D%221%22%20parent%3D%221%22%3E%3CmxGeometry%20x%3D%22-34.5%22%20y%3D%22-31%22%20width%3D%22122%22%20height%3D%2231%22%20as%3D%22geometry%22%2F%3E%3C%2FmxCell%3E%3C%2Froot%3E%3C%2FmxGraphModel%3E&lt;/span&gt;" style="text;html=1;align=center;verticalAlign=middle;resizable=0;points=[];autosize=1;strokeColor=none;fillColor=none;fontSize=16;fontFamily=Times New Roman;fontStyle=1" parent="sfA238IPMwlKO-HkluRP-13" vertex="1">
          <mxGeometry x="105.49291695108077" y="-3.999999999999999" width="127" height="31" as="geometry" />
        </mxCell>
        <mxCell id="sfA238IPMwlKO-HkluRP-16" style="edgeStyle=orthogonalEdgeStyle;rounded=0;orthogonalLoop=1;jettySize=auto;html=1;exitX=0.5;exitY=1;exitDx=0;exitDy=0;entryX=1;entryY=0.5;entryDx=0;entryDy=0;" parent="sfA238IPMwlKO-HkluRP-13" source="sfA238IPMwlKO-HkluRP-18" target="sfA238IPMwlKO-HkluRP-25" edge="1">
          <mxGeometry relative="1" as="geometry" />
        </mxCell>
        <mxCell id="sfA238IPMwlKO-HkluRP-17" value="0...*" style="edgeLabel;html=1;align=center;verticalAlign=middle;resizable=0;points=[];" parent="sfA238IPMwlKO-HkluRP-16" connectable="0" vertex="1">
          <mxGeometry x="-0.2081" y="-2" relative="1" as="geometry">
            <mxPoint as="offset" />
          </mxGeometry>
        </mxCell>
        <mxCell id="sfA238IPMwlKO-HkluRP-18" value="&lt;p style=&quot;margin:0px;margin-top:4px;text-align:center;&quot;&gt;&lt;b&gt;Buyer&lt;/b&gt;&lt;/p&gt;&lt;hr size=&quot;1&quot; style=&quot;border-style:solid;&quot;&gt;&lt;div style=&quot;height:2px;&quot;&gt;&lt;/div&gt;" style="verticalAlign=top;align=left;overflow=fill;html=1;whiteSpace=wrap;fillColor=#ffff88;strokeColor=#36393d;" parent="sfA238IPMwlKO-HkluRP-13" vertex="1">
          <mxGeometry x="214.10666666666668" y="47.00338983050847" width="146.22222222222223" height="44.57627118644068" as="geometry" />
        </mxCell>
        <mxCell id="sfA238IPMwlKO-HkluRP-19" style="edgeStyle=orthogonalEdgeStyle;rounded=0;orthogonalLoop=1;jettySize=auto;html=1;exitX=0.75;exitY=1;exitDx=0;exitDy=0;entryX=0.25;entryY=0;entryDx=0;entryDy=0;" parent="sfA238IPMwlKO-HkluRP-13" source="sfA238IPMwlKO-HkluRP-25" target="sfA238IPMwlKO-HkluRP-28" edge="1">
          <mxGeometry relative="1" as="geometry" />
        </mxCell>
        <mxCell id="sfA238IPMwlKO-HkluRP-20" value="1...1" style="edgeLabel;html=1;align=center;verticalAlign=middle;resizable=0;points=[];" parent="sfA238IPMwlKO-HkluRP-19" connectable="0" vertex="1">
          <mxGeometry x="-0.1073" y="-1" relative="1" as="geometry">
            <mxPoint as="offset" />
          </mxGeometry>
        </mxCell>
        <mxCell id="sfA238IPMwlKO-HkluRP-21" style="edgeStyle=orthogonalEdgeStyle;rounded=0;orthogonalLoop=1;jettySize=auto;html=1;exitX=0;exitY=0.5;exitDx=0;exitDy=0;" parent="sfA238IPMwlKO-HkluRP-13" source="sfA238IPMwlKO-HkluRP-25" target="sfA238IPMwlKO-HkluRP-27" edge="1">
          <mxGeometry relative="1" as="geometry" />
        </mxCell>
        <mxCell id="sfA238IPMwlKO-HkluRP-22" value="1...1" style="edgeLabel;html=1;align=center;verticalAlign=middle;resizable=0;points=[];" parent="sfA238IPMwlKO-HkluRP-21" connectable="0" vertex="1">
          <mxGeometry x="0.4655" y="2" relative="1" as="geometry">
            <mxPoint as="offset" />
          </mxGeometry>
        </mxCell>
        <mxCell id="sfA238IPMwlKO-HkluRP-23" style="edgeStyle=orthogonalEdgeStyle;rounded=0;orthogonalLoop=1;jettySize=auto;html=1;exitX=0.25;exitY=0;exitDx=0;exitDy=0;entryX=0.5;entryY=1;entryDx=0;entryDy=0;" parent="sfA238IPMwlKO-HkluRP-13" source="sfA238IPMwlKO-HkluRP-25" target="sfA238IPMwlKO-HkluRP-26" edge="1">
          <mxGeometry relative="1" as="geometry" />
        </mxCell>
        <mxCell id="sfA238IPMwlKO-HkluRP-24" value="1...1" style="edgeLabel;html=1;align=center;verticalAlign=middle;resizable=0;points=[];" parent="sfA238IPMwlKO-HkluRP-23" connectable="0" vertex="1">
          <mxGeometry x="0.0545" y="-1" relative="1" as="geometry">
            <mxPoint as="offset" />
          </mxGeometry>
        </mxCell>
        <mxCell id="sfA238IPMwlKO-HkluRP-25" value="&lt;p style=&quot;margin:0px;margin-top:4px;text-align:center;&quot;&gt;&lt;b&gt;Payment&lt;/b&gt;&lt;/p&gt;&lt;hr size=&quot;1&quot; style=&quot;border-style:solid;&quot;&gt;&lt;div style=&quot;height:2px;&quot;&gt;&lt;/div&gt;" style="verticalAlign=top;align=left;overflow=fill;html=1;whiteSpace=wrap;fillColor=#ffff88;strokeColor=#36393d;" parent="sfA238IPMwlKO-HkluRP-13" vertex="1">
          <mxGeometry x="95.87777777777778" y="118" width="146.22222222222223" height="47" as="geometry" />
        </mxCell>
        <mxCell id="sfA238IPMwlKO-HkluRP-26" value="&lt;p style=&quot;margin:0px;margin-top:4px;text-align:center;&quot;&gt;&lt;b&gt;PaymentMethod&lt;/b&gt;&lt;/p&gt;&lt;hr size=&quot;1&quot; style=&quot;border-style:solid;&quot;&gt;&lt;div style=&quot;height:2px;&quot;&gt;&lt;/div&gt;" style="verticalAlign=top;align=left;overflow=fill;html=1;whiteSpace=wrap;fillColor=#ffff88;strokeColor=#36393d;" parent="sfA238IPMwlKO-HkluRP-13" vertex="1">
          <mxGeometry x="0.004444444444443363" y="36.78" width="146.22222222222223" height="40" as="geometry" />
        </mxCell>
        <mxCell id="sfA238IPMwlKO-HkluRP-27" value="&lt;p style=&quot;margin:0px;margin-top:4px;text-align:center;&quot;&gt;&lt;b&gt;PaymentStatus&lt;/b&gt;&lt;/p&gt;&lt;hr size=&quot;1&quot; style=&quot;border-style:solid;&quot;&gt;&lt;div style=&quot;height:2px;&quot;&gt;&lt;/div&gt;" style="verticalAlign=top;align=left;overflow=fill;html=1;whiteSpace=wrap;fillColor=#ffff88;strokeColor=#36393d;" parent="sfA238IPMwlKO-HkluRP-13" vertex="1">
          <mxGeometry x="-4" y="215" width="146.22222222222223" height="40" as="geometry" />
        </mxCell>
        <mxCell id="sfA238IPMwlKO-HkluRP-28" value="&lt;p style=&quot;margin:0px;margin-top:4px;text-align:center;&quot;&gt;&lt;b&gt;Cart Info&lt;/b&gt;&lt;/p&gt;&lt;hr size=&quot;1&quot; style=&quot;border-style:solid;&quot;&gt;&lt;div style=&quot;height:2px;&quot;&gt;&lt;/div&gt;" style="verticalAlign=top;align=left;overflow=fill;html=1;whiteSpace=wrap;fillColor=#ffff88;strokeColor=#36393d;" parent="sfA238IPMwlKO-HkluRP-13" vertex="1">
          <mxGeometry x="216.0011111111111" y="212" width="146.22222222222223" height="40" as="geometry" />
        </mxCell>
        <mxCell id="sfA238IPMwlKO-HkluRP-29" value="" style="group" parent="sfA238IPMwlKO-HkluRP-1" connectable="0" vertex="1">
          <mxGeometry x="308" y="305" width="305" height="152" as="geometry" />
        </mxCell>
        <mxCell id="sfA238IPMwlKO-HkluRP-30" value="" style="group" parent="sfA238IPMwlKO-HkluRP-29" connectable="0" vertex="1">
          <mxGeometry width="305" height="121" as="geometry" />
        </mxCell>
        <mxCell id="sfA238IPMwlKO-HkluRP-31" value="" style="rounded=0;whiteSpace=wrap;html=1;fillColor=#f8cecc;strokeColor=#b85450;" parent="sfA238IPMwlKO-HkluRP-30" vertex="1">
          <mxGeometry y="36" width="305" height="85" as="geometry" />
        </mxCell>
        <mxCell id="sfA238IPMwlKO-HkluRP-32" style="edgeStyle=orthogonalEdgeStyle;rounded=0;orthogonalLoop=1;jettySize=auto;html=1;exitX=1;exitY=0.5;exitDx=0;exitDy=0;" parent="sfA238IPMwlKO-HkluRP-30" source="sfA238IPMwlKO-HkluRP-34" target="sfA238IPMwlKO-HkluRP-35" edge="1">
          <mxGeometry relative="1" as="geometry" />
        </mxCell>
        <mxCell id="sfA238IPMwlKO-HkluRP-33" value="1...*" style="edgeLabel;html=1;align=center;verticalAlign=middle;resizable=0;points=[];" parent="sfA238IPMwlKO-HkluRP-32" connectable="0" vertex="1">
          <mxGeometry x="0.2836" y="-1" relative="1" as="geometry">
            <mxPoint as="offset" />
          </mxGeometry>
        </mxCell>
        <mxCell id="sfA238IPMwlKO-HkluRP-34" value="&lt;p style=&quot;margin:0px;margin-top:4px;text-align:center;&quot;&gt;&lt;b&gt;User&lt;/b&gt;&lt;/p&gt;&lt;hr size=&quot;1&quot; style=&quot;border-style:solid;&quot;&gt;&lt;div style=&quot;height:2px;&quot;&gt;&lt;/div&gt;" style="verticalAlign=top;align=left;overflow=fill;html=1;whiteSpace=wrap;fillColor=#ffff88;strokeColor=#36393d;" parent="sfA238IPMwlKO-HkluRP-30" vertex="1">
          <mxGeometry y="58.5" width="140" height="40" as="geometry" />
        </mxCell>
        <mxCell id="sfA238IPMwlKO-HkluRP-35" value="&lt;p style=&quot;margin:0px;margin-top:4px;text-align:center;&quot;&gt;&lt;b&gt;Role&lt;/b&gt;&lt;/p&gt;&lt;hr size=&quot;1&quot; style=&quot;border-style:solid;&quot;&gt;&lt;div style=&quot;height:2px;&quot;&gt;&lt;/div&gt;" style="verticalAlign=top;align=left;overflow=fill;html=1;whiteSpace=wrap;fillColor=#ffff88;strokeColor=#36393d;" parent="sfA238IPMwlKO-HkluRP-30" vertex="1">
          <mxGeometry x="173" y="57.5" width="140" height="41" as="geometry" />
        </mxCell>
        <mxCell id="sfA238IPMwlKO-HkluRP-36" value="Acess Control" style="text;html=1;align=center;verticalAlign=middle;resizable=0;points=[];autosize=1;strokeColor=none;fillColor=none;fontSize=16;fontFamily=Times New Roman;fontStyle=1" parent="sfA238IPMwlKO-HkluRP-29" vertex="1">
          <mxGeometry x="98" y="121" width="109" height="31" as="geometry" />
        </mxCell>
        <mxCell id="sfA238IPMwlKO-HkluRP-37" value="" style="group" parent="sfA238IPMwlKO-HkluRP-1" connectable="0" vertex="1">
          <mxGeometry x="-115" y="267" width="218" height="209" as="geometry" />
        </mxCell>
        <mxCell id="sfA238IPMwlKO-HkluRP-38" value="" style="rounded=0;whiteSpace=wrap;html=1;fillColor=#e1d5e7;strokeColor=#9673a6;" parent="sfA238IPMwlKO-HkluRP-37" vertex="1">
          <mxGeometry y="37" width="218" height="172" as="geometry" />
        </mxCell>
        <mxCell id="sfA238IPMwlKO-HkluRP-39" value="Inventory" style="text;html=1;align=center;verticalAlign=middle;resizable=0;points=[];autosize=1;strokeColor=none;fillColor=none;fontSize=16;fontFamily=Times New Roman;fontStyle=1" parent="sfA238IPMwlKO-HkluRP-37" vertex="1">
          <mxGeometry x="69" width="80" height="31" as="geometry" />
        </mxCell>
        <mxCell id="sfA238IPMwlKO-HkluRP-40" value="" style="group" parent="sfA238IPMwlKO-HkluRP-1" connectable="0" vertex="1">
          <mxGeometry x="329" y="-16" width="320" height="237" as="geometry" />
        </mxCell>
        <mxCell id="sfA238IPMwlKO-HkluRP-41" value="" style="rounded=0;whiteSpace=wrap;html=1;fillColor=#dae8fc;strokeColor=#6c8ebf;" parent="sfA238IPMwlKO-HkluRP-40" vertex="1">
          <mxGeometry y="34" width="320" height="203" as="geometry" />
        </mxCell>
        <mxCell id="sfA238IPMwlKO-HkluRP-42" value="Shopping Cart" style="text;html=1;align=center;verticalAlign=middle;resizable=0;points=[];autosize=1;strokeColor=none;fillColor=none;fontSize=16;fontFamily=Times New Roman;fontStyle=1" parent="sfA238IPMwlKO-HkluRP-40" vertex="1">
          <mxGeometry x="110.85324232081912" width="111" height="31" as="geometry" />
        </mxCell>
        <mxCell id="sfA238IPMwlKO-HkluRP-43" value="&lt;p style=&quot;margin:0px;margin-top:4px;text-align:center;&quot;&gt;&lt;b&gt;Cart&lt;/b&gt;&lt;/p&gt;&lt;hr size=&quot;1&quot; style=&quot;border-style:solid;&quot;&gt;&lt;div style=&quot;height:2px;&quot;&gt;&lt;/div&gt;" style="verticalAlign=top;align=left;overflow=fill;html=1;whiteSpace=wrap;fillColor=#ffff88;strokeColor=#36393d;" parent="sfA238IPMwlKO-HkluRP-40" vertex="1">
          <mxGeometry x="173" y="90" width="140" height="40" as="geometry" />
        </mxCell>
        <mxCell id="sfA238IPMwlKO-HkluRP-44" style="edgeStyle=orthogonalEdgeStyle;rounded=0;orthogonalLoop=1;jettySize=auto;html=1;exitX=1;exitY=0.5;exitDx=0;exitDy=0;entryX=0.5;entryY=0;entryDx=0;entryDy=0;" parent="sfA238IPMwlKO-HkluRP-40" source="sfA238IPMwlKO-HkluRP-47" target="sfA238IPMwlKO-HkluRP-43" edge="1">
          <mxGeometry relative="1" as="geometry" />
        </mxCell>
        <mxCell id="sfA238IPMwlKO-HkluRP-45" value="1...*" style="edgeLabel;html=1;align=center;verticalAlign=middle;resizable=0;points=[];" parent="sfA238IPMwlKO-HkluRP-44" connectable="0" vertex="1">
          <mxGeometry x="-0.7679" relative="1" as="geometry">
            <mxPoint as="offset" />
          </mxGeometry>
        </mxCell>
        <mxCell id="sfA238IPMwlKO-HkluRP-46" value="0...*" style="edgeLabel;html=1;align=center;verticalAlign=middle;resizable=0;points=[];" parent="sfA238IPMwlKO-HkluRP-44" connectable="0" vertex="1">
          <mxGeometry x="0.7893" y="-2" relative="1" as="geometry">
            <mxPoint x="6" y="-9" as="offset" />
          </mxGeometry>
        </mxCell>
        <mxCell id="sfA238IPMwlKO-HkluRP-47" value="&lt;p style=&quot;margin:0px;margin-top:4px;text-align:center;&quot;&gt;&lt;b&gt;Product&lt;/b&gt;&lt;/p&gt;&lt;hr size=&quot;1&quot; style=&quot;border-style:solid;&quot;&gt;&lt;div style=&quot;height:2px;&quot;&gt;&lt;/div&gt;" style="verticalAlign=top;align=left;overflow=fill;html=1;whiteSpace=wrap;fillColor=#ffff88;strokeColor=#36393d;" parent="sfA238IPMwlKO-HkluRP-40" vertex="1">
          <mxGeometry x="15" y="46" width="140" height="40" as="geometry" />
        </mxCell>
        <mxCell id="sfA238IPMwlKO-HkluRP-48" style="edgeStyle=orthogonalEdgeStyle;rounded=0;orthogonalLoop=1;jettySize=auto;html=1;exitX=0.25;exitY=0;exitDx=0;exitDy=0;entryX=0.25;entryY=1;entryDx=0;entryDy=0;" parent="sfA238IPMwlKO-HkluRP-40" source="sfA238IPMwlKO-HkluRP-52" target="sfA238IPMwlKO-HkluRP-43" edge="1">
          <mxGeometry relative="1" as="geometry" />
        </mxCell>
        <mxCell id="sfA238IPMwlKO-HkluRP-49" value="enable/disable" style="edgeLabel;html=1;align=center;verticalAlign=middle;resizable=0;points=[];" parent="sfA238IPMwlKO-HkluRP-48" connectable="0" vertex="1">
          <mxGeometry x="-0.4378" y="1" relative="1" as="geometry">
            <mxPoint x="9" y="2" as="offset" />
          </mxGeometry>
        </mxCell>
        <mxCell id="sfA238IPMwlKO-HkluRP-50" style="edgeStyle=orthogonalEdgeStyle;rounded=0;orthogonalLoop=1;jettySize=auto;html=1;exitX=1;exitY=0.5;exitDx=0;exitDy=0;entryX=0.75;entryY=1;entryDx=0;entryDy=0;" parent="sfA238IPMwlKO-HkluRP-40" source="sfA238IPMwlKO-HkluRP-52" target="sfA238IPMwlKO-HkluRP-43" edge="1">
          <mxGeometry relative="1" as="geometry" />
        </mxCell>
        <mxCell id="sfA238IPMwlKO-HkluRP-51" value="see all carts" style="edgeLabel;html=1;align=center;verticalAlign=middle;resizable=0;points=[];" parent="sfA238IPMwlKO-HkluRP-50" connectable="0" vertex="1">
          <mxGeometry x="0.3798" relative="1" as="geometry">
            <mxPoint as="offset" />
          </mxGeometry>
        </mxCell>
        <mxCell id="sfA238IPMwlKO-HkluRP-52" value="&lt;p style=&quot;margin:0px;margin-top:4px;text-align:center;&quot;&gt;&lt;b&gt;SysAdmin&lt;/b&gt;&lt;/p&gt;&lt;hr size=&quot;1&quot; style=&quot;border-style:solid;&quot;&gt;&lt;div style=&quot;height:2px;&quot;&gt;&lt;/div&gt;" style="verticalAlign=top;align=left;overflow=fill;html=1;whiteSpace=wrap;fillColor=#ffff88;strokeColor=#36393d;" parent="sfA238IPMwlKO-HkluRP-40" vertex="1">
          <mxGeometry x="153" y="184" width="140" height="40" as="geometry" />
        </mxCell>
        <mxCell id="sfA238IPMwlKO-HkluRP-53" style="edgeStyle=orthogonalEdgeStyle;rounded=0;orthogonalLoop=1;jettySize=auto;html=1;exitX=0.75;exitY=0;exitDx=0;exitDy=0;" parent="sfA238IPMwlKO-HkluRP-40" source="sfA238IPMwlKO-HkluRP-55" target="sfA238IPMwlKO-HkluRP-43" edge="1">
          <mxGeometry relative="1" as="geometry" />
        </mxCell>
        <mxCell id="sfA238IPMwlKO-HkluRP-54" value="actions" style="edgeLabel;html=1;align=center;verticalAlign=middle;resizable=0;points=[];" parent="sfA238IPMwlKO-HkluRP-53" connectable="0" vertex="1">
          <mxGeometry x="-0.0933" y="-2" relative="1" as="geometry">
            <mxPoint as="offset" />
          </mxGeometry>
        </mxCell>
        <mxCell id="sfA238IPMwlKO-HkluRP-55" value="&lt;p style=&quot;margin:0px;margin-top:4px;text-align:center;&quot;&gt;&lt;b&gt;Buyer&lt;/b&gt;&lt;/p&gt;&lt;hr size=&quot;1&quot; style=&quot;border-style:solid;&quot;&gt;&lt;div style=&quot;height:2px;&quot;&gt;&lt;/div&gt;" style="verticalAlign=top;align=left;overflow=fill;html=1;whiteSpace=wrap;fillColor=#ffff88;strokeColor=#36393d;" parent="sfA238IPMwlKO-HkluRP-40" vertex="1">
          <mxGeometry x="13" y="130" width="140" height="40" as="geometry" />
        </mxCell>
        <mxCell id="sfA238IPMwlKO-HkluRP-56" value="" style="group" parent="sfA238IPMwlKO-HkluRP-1" connectable="0" vertex="1">
          <mxGeometry x="-124" y="-31" width="325" height="234" as="geometry" />
        </mxCell>
        <mxCell id="sfA238IPMwlKO-HkluRP-57" value="" style="rounded=0;whiteSpace=wrap;html=1;fillColor=#d5e8d4;strokeColor=#82b366;" parent="sfA238IPMwlKO-HkluRP-56" vertex="1">
          <mxGeometry y="31" width="325" height="203" as="geometry" />
        </mxCell>
        <mxCell id="sfA238IPMwlKO-HkluRP-58" value="Product Catalog" style="text;html=1;align=center;verticalAlign=middle;resizable=0;points=[];autosize=1;strokeColor=none;fillColor=none;fontSize=16;fontFamily=Times New Roman;fontStyle=1" parent="sfA238IPMwlKO-HkluRP-56" vertex="1">
          <mxGeometry x="101.5" width="122" height="31" as="geometry" />
        </mxCell>
        <mxCell id="sfA238IPMwlKO-HkluRP-59" style="edgeStyle=orthogonalEdgeStyle;rounded=0;orthogonalLoop=1;jettySize=auto;html=1;exitX=0.5;exitY=1;exitDx=0;exitDy=0;entryX=0.5;entryY=0;entryDx=0;entryDy=0;" parent="sfA238IPMwlKO-HkluRP-56" source="sfA238IPMwlKO-HkluRP-61" target="sfA238IPMwlKO-HkluRP-62" edge="1">
          <mxGeometry relative="1" as="geometry" />
        </mxCell>
        <mxCell id="sfA238IPMwlKO-HkluRP-60" value="+ CRUD&lt;div&gt;+ Assign Inventory&lt;/div&gt;" style="edgeLabel;html=1;align=left;verticalAlign=middle;resizable=0;points=[];" parent="sfA238IPMwlKO-HkluRP-59" connectable="0" vertex="1">
          <mxGeometry x="-0.2516" y="-1" relative="1" as="geometry">
            <mxPoint x="-30" y="4" as="offset" />
          </mxGeometry>
        </mxCell>
        <mxCell id="sfA238IPMwlKO-HkluRP-61" value="&lt;p style=&quot;margin:0px;margin-top:4px;text-align:center;&quot;&gt;&lt;b&gt;Product&lt;/b&gt;&lt;/p&gt;&lt;hr size=&quot;1&quot; style=&quot;border-style:solid;&quot;&gt;&lt;div style=&quot;height:2px;&quot;&gt;&lt;/div&gt;" style="verticalAlign=top;align=left;overflow=fill;html=1;whiteSpace=wrap;fillColor=#ffff88;strokeColor=#36393d;" parent="sfA238IPMwlKO-HkluRP-56" vertex="1">
          <mxGeometry x="176" y="86" width="140" height="40" as="geometry" />
        </mxCell>
        <mxCell id="sfA238IPMwlKO-HkluRP-62" value="&lt;p style=&quot;margin:0px;margin-top:4px;text-align:center;&quot;&gt;&lt;b&gt;SysAdmin&lt;/b&gt;&lt;/p&gt;&lt;hr size=&quot;1&quot; style=&quot;border-style:solid;&quot;&gt;&lt;div style=&quot;height:2px;&quot;&gt;&lt;/div&gt;" style="verticalAlign=top;align=left;overflow=fill;html=1;whiteSpace=wrap;fillColor=#ffff88;strokeColor=#36393d;" parent="sfA238IPMwlKO-HkluRP-56" vertex="1">
          <mxGeometry x="176" y="188" width="140" height="40" as="geometry" />
        </mxCell>
        <mxCell id="sfA238IPMwlKO-HkluRP-63" style="edgeStyle=orthogonalEdgeStyle;rounded=0;orthogonalLoop=1;jettySize=auto;html=1;exitX=0.5;exitY=1;exitDx=0;exitDy=0;entryX=0.5;entryY=0;entryDx=0;entryDy=0;" parent="sfA238IPMwlKO-HkluRP-1" source="sfA238IPMwlKO-HkluRP-67" target="sfA238IPMwlKO-HkluRP-68" edge="1">
          <mxGeometry relative="1" as="geometry" />
        </mxCell>
        <mxCell id="sfA238IPMwlKO-HkluRP-64" value="CRUD" style="edgeLabel;html=1;align=center;verticalAlign=middle;resizable=0;points=[];" parent="sfA238IPMwlKO-HkluRP-63" connectable="0" vertex="1">
          <mxGeometry x="-0.0171" relative="1" as="geometry">
            <mxPoint as="offset" />
          </mxGeometry>
        </mxCell>
        <mxCell id="sfA238IPMwlKO-HkluRP-65" style="edgeStyle=orthogonalEdgeStyle;rounded=0;orthogonalLoop=1;jettySize=auto;html=1;exitX=1;exitY=0.5;exitDx=0;exitDy=0;entryX=0;entryY=0.5;entryDx=0;entryDy=0;" parent="sfA238IPMwlKO-HkluRP-1" source="sfA238IPMwlKO-HkluRP-67" target="sfA238IPMwlKO-HkluRP-34" edge="1">
          <mxGeometry relative="1" as="geometry" />
        </mxCell>
        <mxCell id="sfA238IPMwlKO-HkluRP-66" value="is a" style="edgeLabel;html=1;align=center;verticalAlign=middle;resizable=0;points=[];" parent="sfA238IPMwlKO-HkluRP-65" connectable="0" vertex="1">
          <mxGeometry x="-0.0148" relative="1" as="geometry">
            <mxPoint as="offset" />
          </mxGeometry>
        </mxCell>
        <mxCell id="sfA238IPMwlKO-HkluRP-67" value="&lt;p style=&quot;margin:0px;margin-top:4px;text-align:center;&quot;&gt;&lt;b&gt;SysAdmin&lt;/b&gt;&lt;/p&gt;&lt;hr size=&quot;1&quot; style=&quot;border-style:solid;&quot;&gt;&lt;div style=&quot;height:2px;&quot;&gt;&lt;/div&gt;" style="verticalAlign=top;align=left;overflow=fill;html=1;whiteSpace=wrap;fillColor=#ffff88;strokeColor=#36393d;" parent="sfA238IPMwlKO-HkluRP-1" vertex="1">
          <mxGeometry x="-76" y="331" width="140" height="40" as="geometry" />
        </mxCell>
        <mxCell id="sfA238IPMwlKO-HkluRP-68" value="&lt;p style=&quot;margin:0px;margin-top:4px;text-align:center;&quot;&gt;&lt;b&gt;Inventory&lt;/b&gt;&lt;/p&gt;&lt;hr size=&quot;1&quot; style=&quot;border-style:solid;&quot;&gt;&lt;div style=&quot;height:2px;&quot;&gt;&lt;/div&gt;" style="verticalAlign=top;align=left;overflow=fill;html=1;whiteSpace=wrap;fillColor=#ffff88;strokeColor=#36393d;" parent="sfA238IPMwlKO-HkluRP-1" vertex="1">
          <mxGeometry x="-76" y="406" width="140" height="40" as="geometry" />
        </mxCell>
        <mxCell id="sfA238IPMwlKO-HkluRP-69" style="edgeStyle=orthogonalEdgeStyle;rounded=0;orthogonalLoop=1;jettySize=auto;html=1;exitX=1;exitY=0.5;exitDx=0;exitDy=0;entryX=0.5;entryY=0;entryDx=0;entryDy=0;" parent="sfA238IPMwlKO-HkluRP-1" source="sfA238IPMwlKO-HkluRP-71" target="sfA238IPMwlKO-HkluRP-61" edge="1">
          <mxGeometry relative="1" as="geometry" />
        </mxCell>
        <mxCell id="sfA238IPMwlKO-HkluRP-70" value="is a" style="edgeLabel;html=1;align=center;verticalAlign=middle;resizable=0;points=[];" parent="sfA238IPMwlKO-HkluRP-69" connectable="0" vertex="1">
          <mxGeometry x="-0.3673" relative="1" as="geometry">
            <mxPoint as="offset" />
          </mxGeometry>
        </mxCell>
        <mxCell id="sfA238IPMwlKO-HkluRP-71" value="&lt;p style=&quot;margin:0px;margin-top:4px;text-align:center;&quot;&gt;&lt;b&gt;Hot Product&lt;/b&gt;&lt;/p&gt;&lt;hr size=&quot;1&quot; style=&quot;border-style:solid;&quot;&gt;&lt;div style=&quot;height:2px;&quot;&gt;&lt;/div&gt;" style="verticalAlign=top;align=left;overflow=fill;html=1;whiteSpace=wrap;fillColor=#ffff88;strokeColor=#36393d;" parent="sfA238IPMwlKO-HkluRP-1" vertex="1">
          <mxGeometry x="-103" y="15" width="140" height="40" as="geometry" />
        </mxCell>
        <mxCell id="sfA238IPMwlKO-HkluRP-72" style="edgeStyle=orthogonalEdgeStyle;rounded=0;orthogonalLoop=1;jettySize=auto;html=1;exitX=1;exitY=0.5;exitDx=0;exitDy=0;" parent="sfA238IPMwlKO-HkluRP-1" source="sfA238IPMwlKO-HkluRP-76" target="sfA238IPMwlKO-HkluRP-61" edge="1">
          <mxGeometry relative="1" as="geometry" />
        </mxCell>
        <mxCell id="sfA238IPMwlKO-HkluRP-73" value="1...*" style="edgeLabel;html=1;align=center;verticalAlign=middle;resizable=0;points=[];" parent="sfA238IPMwlKO-HkluRP-72" connectable="0" vertex="1">
          <mxGeometry x="0.3724" y="1" relative="1" as="geometry">
            <mxPoint as="offset" />
          </mxGeometry>
        </mxCell>
        <mxCell id="sfA238IPMwlKO-HkluRP-74" style="edgeStyle=orthogonalEdgeStyle;rounded=0;orthogonalLoop=1;jettySize=auto;html=1;exitX=0;exitY=0.5;exitDx=0;exitDy=0;entryX=0;entryY=0.5;entryDx=0;entryDy=0;" parent="sfA238IPMwlKO-HkluRP-1" source="sfA238IPMwlKO-HkluRP-76" target="sfA238IPMwlKO-HkluRP-68" edge="1">
          <mxGeometry relative="1" as="geometry" />
        </mxCell>
        <mxCell id="sfA238IPMwlKO-HkluRP-75" value="is a" style="edgeLabel;html=1;align=center;verticalAlign=middle;resizable=0;points=[];" parent="sfA238IPMwlKO-HkluRP-74" connectable="0" vertex="1">
          <mxGeometry x="-0.0974" y="-2" relative="1" as="geometry">
            <mxPoint as="offset" />
          </mxGeometry>
        </mxCell>
        <mxCell id="sfA238IPMwlKO-HkluRP-76" value="&lt;p style=&quot;margin:0px;margin-top:4px;text-align:center;&quot;&gt;&lt;b&gt;Inventory Info&lt;/b&gt;&lt;/p&gt;&lt;hr size=&quot;1&quot; style=&quot;border-style:solid;&quot;&gt;&lt;div style=&quot;height:2px;&quot;&gt;&lt;/div&gt;" style="verticalAlign=top;align=left;overflow=fill;html=1;whiteSpace=wrap;fillColor=#ffff88;strokeColor=#36393d;" parent="sfA238IPMwlKO-HkluRP-1" vertex="1">
          <mxGeometry x="-124" y="77" width="140" height="40" as="geometry" />
        </mxCell>
        <mxCell id="sfA238IPMwlKO-HkluRP-77" style="edgeStyle=orthogonalEdgeStyle;rounded=0;orthogonalLoop=1;jettySize=auto;html=1;exitX=0.5;exitY=1;exitDx=0;exitDy=0;entryX=0.389;entryY=-0.002;entryDx=0;entryDy=0;entryPerimeter=0;" parent="sfA238IPMwlKO-HkluRP-1" source="sfA238IPMwlKO-HkluRP-79" target="sfA238IPMwlKO-HkluRP-34" edge="1">
          <mxGeometry relative="1" as="geometry" />
        </mxCell>
        <mxCell id="sfA238IPMwlKO-HkluRP-78" value="is a" style="edgeLabel;html=1;align=center;verticalAlign=middle;resizable=0;points=[];" parent="sfA238IPMwlKO-HkluRP-77" connectable="0" vertex="1">
          <mxGeometry x="0.041" y="3" relative="1" as="geometry">
            <mxPoint as="offset" />
          </mxGeometry>
        </mxCell>
        <mxCell id="sfA238IPMwlKO-HkluRP-79" value="&lt;p style=&quot;margin:0px;margin-top:4px;text-align:center;&quot;&gt;&lt;b&gt;Buyer&lt;/b&gt;&lt;/p&gt;&lt;hr size=&quot;1&quot; style=&quot;border-style:solid;&quot;&gt;&lt;div style=&quot;height:2px;&quot;&gt;&lt;/div&gt;" style="verticalAlign=top;align=left;overflow=fill;html=1;whiteSpace=wrap;fillColor=#ffff88;strokeColor=#36393d;" parent="sfA238IPMwlKO-HkluRP-1" vertex="1">
          <mxGeometry x="-124" y="142" width="140" height="40" as="geometry" />
        </mxCell>
        <mxCell id="sfA238IPMwlKO-HkluRP-80" style="edgeStyle=orthogonalEdgeStyle;rounded=0;orthogonalLoop=1;jettySize=auto;html=1;exitX=1;exitY=0.5;exitDx=0;exitDy=0;entryX=1;entryY=0.5;entryDx=0;entryDy=0;" parent="sfA238IPMwlKO-HkluRP-1" source="sfA238IPMwlKO-HkluRP-28" target="sfA238IPMwlKO-HkluRP-43" edge="1">
          <mxGeometry relative="1" as="geometry" />
        </mxCell>
        <mxCell id="sfA238IPMwlKO-HkluRP-81" value="is a" style="edgeLabel;html=1;align=center;verticalAlign=middle;resizable=0;points=[];" parent="sfA238IPMwlKO-HkluRP-80" connectable="0" vertex="1">
          <mxGeometry x="0.601" y="-4" relative="1" as="geometry">
            <mxPoint as="offset" />
          </mxGeometry>
        </mxCell>
        <mxCell id="sfA238IPMwlKO-HkluRP-82" style="edgeStyle=orthogonalEdgeStyle;rounded=0;orthogonalLoop=1;jettySize=auto;html=1;exitX=1;exitY=0.5;exitDx=0;exitDy=0;entryX=0;entryY=0.5;entryDx=0;entryDy=0;" parent="sfA238IPMwlKO-HkluRP-1" source="sfA238IPMwlKO-HkluRP-61" target="sfA238IPMwlKO-HkluRP-47" edge="1">
          <mxGeometry relative="1" as="geometry" />
        </mxCell>
        <mxCell id="sfA238IPMwlKO-HkluRP-83" value="is a" style="edgeLabel;html=1;align=center;verticalAlign=middle;resizable=0;points=[];" parent="sfA238IPMwlKO-HkluRP-82" connectable="0" vertex="1">
          <mxGeometry x="-0.1638" y="2" relative="1" as="geometry">
            <mxPoint as="offset" />
          </mxGeometry>
        </mxCell>
        <mxCell id="sfA238IPMwlKO-HkluRP-84" style="edgeStyle=orthogonalEdgeStyle;rounded=0;orthogonalLoop=1;jettySize=auto;html=1;exitX=0;exitY=1;exitDx=0;exitDy=0;entryX=1;entryY=0.25;entryDx=0;entryDy=0;" parent="sfA238IPMwlKO-HkluRP-1" source="sfA238IPMwlKO-HkluRP-61" target="sfA238IPMwlKO-HkluRP-79" edge="1">
          <mxGeometry relative="1" as="geometry" />
        </mxCell>
        <mxCell id="sfA238IPMwlKO-HkluRP-85" value="filter" style="edgeLabel;html=1;align=center;verticalAlign=middle;resizable=0;points=[];" parent="sfA238IPMwlKO-HkluRP-84" connectable="0" vertex="1">
          <mxGeometry x="-0.6301" y="-1" relative="1" as="geometry">
            <mxPoint x="3" y="8" as="offset" />
          </mxGeometry>
        </mxCell>
        <mxCell id="sfA238IPMwlKO-HkluRP-86" style="edgeStyle=orthogonalEdgeStyle;rounded=0;orthogonalLoop=1;jettySize=auto;html=1;exitX=0.5;exitY=1;exitDx=0;exitDy=0;entryX=0.5;entryY=0;entryDx=0;entryDy=0;" parent="sfA238IPMwlKO-HkluRP-1" source="sfA238IPMwlKO-HkluRP-55" target="sfA238IPMwlKO-HkluRP-34" edge="1">
          <mxGeometry relative="1" as="geometry" />
        </mxCell>
        <mxCell id="sfA238IPMwlKO-HkluRP-87" value="is a" style="edgeLabel;html=1;align=center;verticalAlign=middle;resizable=0;points=[];" parent="sfA238IPMwlKO-HkluRP-86" connectable="0" vertex="1">
          <mxGeometry x="-0.0339" relative="1" as="geometry">
            <mxPoint as="offset" />
          </mxGeometry>
        </mxCell>
        <mxCell id="sfA238IPMwlKO-HkluRP-88" style="edgeStyle=orthogonalEdgeStyle;rounded=0;orthogonalLoop=1;jettySize=auto;html=1;exitX=0.75;exitY=1;exitDx=0;exitDy=0;entryX=0.25;entryY=0;entryDx=0;entryDy=0;" parent="sfA238IPMwlKO-HkluRP-1" source="sfA238IPMwlKO-HkluRP-57" target="sfA238IPMwlKO-HkluRP-34" edge="1">
          <mxGeometry relative="1" as="geometry" />
        </mxCell>
        <mxCell id="sfA238IPMwlKO-HkluRP-89" value="is a" style="edgeLabel;html=1;align=center;verticalAlign=middle;resizable=0;points=[];" parent="sfA238IPMwlKO-HkluRP-88" connectable="0" vertex="1">
          <mxGeometry x="0.0654" y="-1" relative="1" as="geometry">
            <mxPoint as="offset" />
          </mxGeometry>
        </mxCell>
        <mxCell id="sfA238IPMwlKO-HkluRP-90" style="edgeStyle=orthogonalEdgeStyle;rounded=0;orthogonalLoop=1;jettySize=auto;html=1;exitX=0.75;exitY=1;exitDx=0;exitDy=0;entryX=1;entryY=0.5;entryDx=0;entryDy=0;" parent="sfA238IPMwlKO-HkluRP-1" source="sfA238IPMwlKO-HkluRP-61" target="sfA238IPMwlKO-HkluRP-9" edge="1">
          <mxGeometry relative="1" as="geometry">
            <Array as="points">
              <mxPoint x="157" y="311" />
              <mxPoint x="638" y="311" />
              <mxPoint x="638" y="641" />
            </Array>
          </mxGeometry>
        </mxCell>
        <mxCell id="sfA238IPMwlKO-HkluRP-91" value="is a" style="edgeLabel;html=1;align=center;verticalAlign=middle;resizable=0;points=[];" parent="sfA238IPMwlKO-HkluRP-90" connectable="0" vertex="1">
          <mxGeometry x="0.6031" y="-4" relative="1" as="geometry">
            <mxPoint as="offset" />
          </mxGeometry>
        </mxCell>
        <mxCell id="sfA238IPMwlKO-HkluRP-92" style="edgeStyle=orthogonalEdgeStyle;rounded=0;orthogonalLoop=1;jettySize=auto;html=1;exitX=0.5;exitY=1;exitDx=0;exitDy=0;entryX=0.75;entryY=0;entryDx=0;entryDy=0;" parent="sfA238IPMwlKO-HkluRP-1" source="sfA238IPMwlKO-HkluRP-52" target="sfA238IPMwlKO-HkluRP-34" edge="1">
          <mxGeometry relative="1" as="geometry" />
        </mxCell>
        <mxCell id="sfA238IPMwlKO-HkluRP-93" value="is a" style="edgeLabel;html=1;align=center;verticalAlign=middle;resizable=0;points=[];" parent="sfA238IPMwlKO-HkluRP-92" connectable="0" vertex="1">
          <mxGeometry x="0.0424" y="2" relative="1" as="geometry">
            <mxPoint as="offset" />
          </mxGeometry>
        </mxCell>
        <mxCell id="sfA238IPMwlKO-HkluRP-94" style="edgeStyle=orthogonalEdgeStyle;rounded=0;orthogonalLoop=1;jettySize=auto;html=1;exitX=0;exitY=0.25;exitDx=0;exitDy=0;entryX=0;entryY=0.5;entryDx=0;entryDy=0;" parent="sfA238IPMwlKO-HkluRP-1" source="sfA238IPMwlKO-HkluRP-34" target="sfA238IPMwlKO-HkluRP-12" edge="1">
          <mxGeometry relative="1" as="geometry" />
        </mxCell>
        <mxCell id="sfA238IPMwlKO-HkluRP-95" value="is a" style="edgeLabel;html=1;align=center;verticalAlign=middle;resizable=0;points=[];" parent="sfA238IPMwlKO-HkluRP-94" connectable="0" vertex="1">
          <mxGeometry x="-0.2773" y="-2" relative="1" as="geometry">
            <mxPoint as="offset" />
          </mxGeometry>
        </mxCell>
        <mxCell id="sfA238IPMwlKO-HkluRP-96" style="edgeStyle=orthogonalEdgeStyle;rounded=0;orthogonalLoop=1;jettySize=auto;html=1;exitX=1;exitY=0.5;exitDx=0;exitDy=0;entryX=0.1;entryY=0.917;entryDx=0;entryDy=0;entryPerimeter=0;" parent="sfA238IPMwlKO-HkluRP-1" source="sfA238IPMwlKO-HkluRP-18" target="sfA238IPMwlKO-HkluRP-34" edge="1">
          <mxGeometry relative="1" as="geometry" />
        </mxCell>
        <mxCell id="sfA238IPMwlKO-HkluRP-97" value="is a" style="edgeLabel;html=1;align=center;verticalAlign=middle;resizable=0;points=[];" parent="sfA238IPMwlKO-HkluRP-96" connectable="0" vertex="1">
          <mxGeometry x="-0.6849" relative="1" as="geometry">
            <mxPoint as="offset" />
          </mxGeometry>
        </mxCell>
      </root>
    </mxGraphModel>
  </diagram>
</mxfile>
